PathFileType        4      (X/Y/Z)      C:\Users\pc\Desktop\IMUTRC\Sujet_04\Sujet_04_velo_100.trc         
DataRate	CameraRate	NumFrames	NumMarkers	Units	OrigDataRate	OrigDataStartFrame	OrigNumFrames
60.0	60.0	4	64	mm	60.0	122	975
Frame#	Time	pHipOrigin			pRightASI			pLeftASI			pRightCSI			pLeftCSI			pRightIschialTub			pLeftIschialTub			pSacrum			pL5SpinalProcess			pL3SpinalProcess			pT12SpinalProcess			pIJ			pT4SpinalProcess			pT8SpinalProcess			pPX			pC7SpinalProcess			pTopOfHead			pRightAuricularis			pLeftAuricularis			pBackOfHead			pRightAcromion			pLeftAcromion			pRightArmLatEpicondyle			pRightArmMedEpicondyle			pLeftArmLatEpicondyle			pLeftArmMedEpicondyle			pRightUlnarStyloid			pRightRadialStyloid			pRightOlecranon			pLeftUlnarStyloid			pLeftRadialStyloid			pLeftOlecranon			pRightTopOfHand			pRightPinky			pRightBallHand			pLeftTopOfHand			pLeftPinky			pLeftBallHand			pRightGreaterTrochanter			pRightKneeLatEpicondyle			pRightKneeMedEpicondyle			pRightPatella			pLeftGreaterTrochanter			pLeftKneeLatEpicondyle			pLeftKneeMedEpicondyle			pLeftPatella			pRightTibialTub			pRightLatMalleolus			pRightMedMalleolus			pLeftTibialTub			pLeftLatMalleolus			pLeftMedMalleolus			pRightHeelFoot			pRightFirstMetatarsal			pRightFifthMetatarsal			pRightPivotFoot			pRightHeelCenter			pRightToe			pLeftHeelFoot			pLeftFirstMetatarsal			pLeftFifthMetatarsal			pLeftPivotFoot			pLeftHeelCenter			pLeftToe			
		X1	Y1	Z1	X2	Y2	Z2	X3	Y3	Z3	X4	Y4	Z4	X5	Y5	Z5	X6	Y6	Z6	X7	Y7	Z7	X8	Y8	Z8	X9	Y9	Z9	X10	Y10	Z10	X11	Y11	Z11	X12	Y12	Z12	X13	Y13	Z13	X14	Y14	Z14	X15	Y15	Z15	X16	Y16	Z16	X17	Y17	Z17	X18	Y18	Z18	X19	Y19	Z19	X20	Y20	Z20	X21	Y21	Z21	X22	Y22	Z22	X23	Y23	Z23	X24	Y24	Z24	X25	Y25	Z25	X26	Y26	Z26	X27	Y27	Z27	X28	Y28	Z28	X29	Y29	Z29	X30	Y30	Z30	X31	Y31	Z31	X32	Y32	Z32	X33	Y33	Z33	X34	Y34	Z34	X35	Y35	Z35	X36	Y36	Z36	X37	Y37	Z37	X38	Y38	Z38	X39	Y39	Z39	X40	Y40	Z40	X41	Y41	Z41	X42	Y42	Z42	X43	Y43	Z43	X44	Y44	Z44	X45	Y45	Z45	X46	Y46	Z46	X47	Y47	Z47	X48	Y48	Z48	X49	Y49	Z49	X50	Y50	Z50	X51	Y51	Z51	X52	Y52	Z52	X53	Y53	Z53	X54	Y54	Z54	X55	Y55	Z55	X56	Y56	Z56	X57	Y57	Z57	X58	Y58	Z58	X59	Y59	Z59	X60	Y60	Z60	X61	Y61	Z61	X62	Y62	Z62	X63	Y63	Z63	X64	Y64	Z64	
122	2.017	4.920011254230237E-14	1250.02225	5.863441087832831E-14	77.22113297647782	1333.46825	159.20823342859396	104.10285900619698	1348.59693	-133.07103630578203	46.08882164306346	1414.82959	133.78155461258143	68.12467729470946	1427.21843	-105.52533760287048	-75.85257249863601	1198.32266	50.818727444155535	-64.83464850303523	1204.57664	-68.83471544963238	-66.30080979793183	1286.29535	-4.236308975093493	-4.691681189526329	1384.09573	6.269354970676417	63.24609251178113	1483.68296	23.205266394155725	128.44150716098852	1572.37039	41.04273702376895	391.72612913139204	1592.85963	88.13299072960712	279.03221215962714	1702.15542	80.6833622716672	203.97916557657098	1650.09846	61.47613256149798	292.207826880328	1517.45447	62.00798120079611	323.92862742052483	1731.22155	92.30576960185198	536.8886574725768	1854.45479	119.26600867098404	469.56483740854003	1780.24087	179.87827182490838	476.4142237071179	1789.17513	43.118268423367965	433.27772554470954	1821.15978	111.89231543499758	296.2133505671054	1671.00463	273.7876376699397	358.7774136562097	1720.67912	-97.26114039837998	333.2164714031561	1350.32422	260.62136816202184	321.70557659719435	1350.56247	194.54939296924385	396.08081292636945	1393.02999	-84.86559698670797	362.43259410484	1391.36226	-26.92999214660145	444.94412774089733	1121.90495	201.31501386194952	492.3762380760686	1145.7892	209.56569335194533	303.9442948473549	1339.48398	226.0141233219772	448.1144907127423	1155.02127	18.658131100933446	498.4567737462677	1172.35374	26.021926078349452	355.2215047092409	1384.57222	-61.93240137366294	669.7815042247646	1075.2681	280.97735036200606	573.386194375549	1053.40894	244.76761155874277	508.7265481464686	1096.71033	207.2757521565704	671.6081204349907	1065.85735	-3.26283729740328	567.7672282691055	1063.83225	13.737415076993727	505.7467354256836	1120.95196	32.578546914774876	8.761953047217133	1246.62723	179.64220794330623	394.5846193601227	1057.10177	247.3037790485089	409.1708193520949	1042.62827	165.6316656492966	420.67873902649114	1092.60057	199.36118624320432	7.5265370211201486	1222.98122	-175.42683841406188	213.13235687803916	839.46317	-178.45051870347098	233.1233121394006	842.14345	-96.7127263147415	262.64000496474637	865.55121	-145.11688192232526	435.11326536377203	999.74382	201.08909554480113	187.4153695098612	665.48333	153.671400754425	197.91731935703092	673.4646	88.7220317116388	265.4563236373183	791.75422	-144.4477102352952	54.926126790789304	430.57182	-167.7708844488415	64.07121687873496	427.11724	-102.20183052098727	130.6403375530914	592.69888	115.93925194991793	305.00229450776374	550.29092	101.81116104295194	292.77928999421374	554.40068	185.46567538618768	322.1361299000964	546.77678	146.13717007337834	172.10257133362504	585.13454	122.35703867248637	409.20485072606084	525.33455	159.92719904193657	-17.959192605279455	368.032	-125.73991545604352	141.12766490269942	295.06886	-83.66487735685433	137.669523372435	286.73022	-167.845762749411	161.01549389534577	280.41667	-124.45597027675238	21.26986145483594	351.41427	-125.69000959121045	242.26631218423788	240.15294	-123.90044020166303	
123	2.033	4.920011254230237E-14	1250.02225	5.863441087832831E-14	78.27213632033987	1333.34913	158.79286336745474	103.31511993046796	1348.59693	-133.73183488868727	47.07950293757435	1414.77002	133.57228782303704	67.60493565708703	1427.21843	-105.86674927610612	-75.5536253796196	1198.38222	51.267657658366815	-65.29091989424575	1204.6362	-68.45185829355088	-66.29923248546342	1286.35491	-3.7711190944153117	-4.531195864519274	1384.09573	6.367955022184418	63.695022725992416	1483.6234	22.90631927513932	129.17153985483648	1572.19171	40.43016685961378	392.6884840729076	1591.90664	86.31470218898971	280.3317845618715	1701.50024	79.35962831972492	205.03592635708776	1649.68153	60.51165492217112	292.83610489773116	1516.79929	60.62551660029162	325.2958566212435	1730.44725	90.69201468080541	538.0424269038127	1853.79961	117.67585459340359	470.7715812842516	1779.46656	178.1659168523539	477.834419691868	1788.34126	41.38231903522342	434.5301014553295	1820.32592	110.14168369285451	297.97811927790417	1670.40902	272.46233406597344	360.07699248633025	1719.60701	-98.58486668987781	334.88107041042286	1349.7286	258.9913535745085	323.0654646209138	1349.96685	193.01954808526233	396.9933557087905	1392.31525	-85.63131129887097	362.9785329697703	1390.64752	-27.85461570387139	446.28933217805	1121.19021	199.9530031404188	493.7214425132212	1145.07446	208.2036826304146	305.4337185151717	1338.88837	224.453335184962	449.1565691392606	1154.36609	17.861473535736792	499.50619334978524	1171.75812	25.141358476087674	355.88230329214605	1383.79792	-62.72014044939195	671.0134262564108	1074.61292	279.94364503961253	574.625465244639	1052.75377	243.64998977140814	510.06440497874587	1095.99559	205.99764381166034	672.6575400385084	1065.20217	-4.143404899665029	568.7710222655909	1063.17707	12.895131904764867	506.8344394592341	1120.35634	31.74360491954522	10.340026349948673	1246.2103	179.48432419744876	394.10364103387155	1051.08604	242.65347040994772	407.5606979373234	1036.55297	160.84029363757654	420.1741598567738	1086.34659	194.49741783516023	7.397001377022889	1222.80253	-175.3958951610282	221.4763971664972	843.98986	-178.14328550053094	241.6425201068642	847.26576	-96.47471313442362	270.4952532964918	871.20958	-145.02151708807912	437.5194183660722	995.39581	197.7483032972015	209.72622403552919	645.64927	163.95199115635637	218.99151225320293	652.20106	98.64076422180523	270.2083933802004	794.37493	-144.15878646475267	35.45321617967778	448.38078	-166.5151274571984	44.43047976561716	444.39015	-100.96076354378707	156.79228992381266	568.63594	127.73966265478853	333.2017030418332	535.9961	112.4378285515196	321.56608287605945	540.70148	196.14373236631835	350.93760513594066	534.09013	156.64740697937884	198.7034603464337	563.57319	133.858509918785	439.07934764145705	517.9489	169.77031402683758	-40.430931977535984	389.17641	-125.00018600342261	114.88144612886215	308.58938	-82.79032727694364	111.30111013149973	300.78679	-167.0241794535317	134.2201752037652	293.22245	-123.58718406137251	-2.048347641711864	370.71227	-124.93978433665349	213.47335591627981	249.0872	-122.9104773579902	
124	2.05	4.920011254230237E-14	1250.02225	5.863441087832831E-14	79.35407648935953	1332.87263	158.5070212899684	102.37582167964393	1349.07342	-134.10996010736352	47.911290307867134	1414.35309	133.72961209523115	66.75113118367263	1427.63536	-105.77233577666053	-75.16343347441497	1198.20354	51.64001135206782	-65.78546805504479	1204.81489	-68.11463317237765	-66.35062961747084	1286.35491	-3.1837283187630128	-4.5222773750516225	1384.09573	6.749234865797499	63.848166874000235	1483.56384	23.088829363712424	129.52921119453902	1572.07258	40.20779502853934	393.35346920787526	1591.37059	84.51267331483925	281.1058655502832	1701.20244	78.24358384485866	205.59813254892944	1649.50284	59.88439474357304	293.236247219529	1516.44192	59.4344805778279	326.13758674768513	1730.03032	89.28595566471087	538.6927361126579	1853.62093	116.04165345382773	471.46751610012905	1779.10919	176.4934312827451	478.7438001889078	1788.04345	39.68623138958014	435.27899662736223	1819.84942	108.34699599570334	299.51475352566587	1670.23033	271.3284449517274	360.43885037809514	1719.0114	-99.8215283193737	336.25722576105363	1349.49036	257.75887206919884	324.09861689752006	1349.7286	191.8416171043287	397.4569682770002	1392.01744	-86.09807849201752	363.2890078178484	1390.40927	-28.503885325146683	447.3770362116004	1120.83283	199.11806114518913	494.8547721538039	1144.65753	207.33045620515207	306.6803305612608	1338.65012	223.25180336056223	449.9558295161752	1154.30653	17.42406462271103	500.22888486663396	1171.75812	24.612698348997554	356.30762376987843	1383.55967	-63.23252682169462	671.9275463513002	1074.4938	279.6431206081278	575.638177730592	1052.45596	243.1889864427923	511.13743308617404	1095.57866	205.33052955100533	673.4038323988232	1065.02348	-4.458605257272268	569.5173146259058	1063.11751	12.579931547157685	507.5880729965482	1120.23722	31.344494524872943	11.659020704041254	1244.60213	179.38833338553474	390.9977738456575	1039.4715	237.56211169164126	403.4169388746535	1025.41493	155.53130268604534	417.51880662311555	1074.4938	189.57230953895998	7.999075739242002	1223.33859	-175.5123321914715	233.93634261809214	851.49464	-178.49061332993477	253.67556010781388	855.18747	-96.7748380443269	281.8805997560663	880.14384	-145.16691287706172	436.63671397767865	985.92549	193.82383313998145	228.2489334118546	623.37318	172.59056555568208	236.7736931337444	628.37636	107.04543906099487	278.37568744461623	800.56936	-144.24750903154808	20.76592780407603	471.19293	-166.3203907300151	29.491453618375687	466.66624	-100.78804391972537	178.42292391472722	542.5479	137.58024899242068	356.0023737908949	517.88933	120.98562419024316	344.87022793583225	522.89252	204.73557629960567	374.1725237452152	517.23416	165.0640755732162	220.57691361952033	539.45068	143.33983351592565	463.21211778614133	505.26225	177.5891088988388	-58.1773506474373	415.38358	-125.11536465065399	92.858643398693	327.17264	-82.34953728289472	89.2326817942984	319.6083	-166.54510502944987	111.51138807431185	310.91229	-123.03729821387952	-20.69421048038027	395.01346	-124.92226628697469	188.53878908696754	262.96508	-122.0479939646079	
125	2.067	4.920011254230237E-14	1250.02225	5.863441087832831E-14	80.23883064368373	1331.86008	158.5421510950645	101.2319885766808	1350.32422	-134.08319697851613	48.42526808095874	1413.45967	134.62012368621006	65.61779511521388	1428.52879	-104.8991170118424	-74.66729391282699	1197.60792	51.76797734414109	-66.13579821774806	1205.17226	-67.97617137836829	-66.45497944518914	1286.17623	-2.4741418434443396	-4.778200466185414	1384.03617	7.741493472776812	63.60691847642049	1483.56384	23.913274324437637	129.3026604718466	1572.07258	40.86440705938215	393.3943628775022	1591.54927	83.0788192427718	281.0660038077819	1701.32156	77.73276835714832	205.41562246035633	1649.56241	60.037538891580866	293.16543579611783	1516.56104	58.79412178557588	326.18005130190437	1730.14944	88.31728381287716	538.6040800498672	1853.9783	114.63874140222566	471.508409769756	1779.407	175.05957721067762	478.7773526815354	1788.2817	38.33628735457776	435.235980259924	1820.08767	106.9058007466366	300.6643428327154	1670.46858	270.7525883330129	359.4140647777377	1719.24964	-100.67218459572733	337.1624197060311	1349.66904	257.07707422197706	324.6608295172378	1349.90729	191.214364586175	397.47165063099874	1392.49393	-86.26589856614774	363.3802590319127	1390.88577	-28.580454185212517	448.0173950038525	1120.8924	199.047249721778	495.49513094605595	1144.71709	207.25964478174092	307.41036325510873	1338.82881	222.63923319640705	450.2767937383132	1154.96171	17.621257065282634	500.549849088772	1172.47286	24.80989079156916	356.3605982143543	1383.9766	-63.35472771666869	672.3576064268823	1074.97029	280.52629744998353	576.2197982138375	1052.75377	243.7894758320986	511.8396771519251	1095.69778	205.51880350410923	673.6571539108073	1065.55954	-3.9713906130280066	569.7779708870132	1063.71313	12.983228493892398	507.86341927209844	1120.95196	31.579964969601377	12.512831605331726	1241.3858	179.29392754653355	384.16147431785816	1021.30517	232.10211337823404	395.8930776351015	1008.55895	149.71521034540396	411.8132274963049	1056.32747	184.71856447938978	9.67574786091319	1225.00632	-175.83068717401554	250.64906362604438	862.75181	-179.60736314222572	269.1311656072965	866.32552	-97.53651932863318	296.98011122831485	892.94962	-145.2410324496154	431.9779593031121	970.32032	189.56900138981743	241.6938756531864	597.46382	179.34746818817968	250.05815005006906	600.9184	113.70374164198444	290.3085500815895	810.63529	-144.85233849712245	11.349884907439346	499.24651	-167.90518689252238	19.64851169896985	494.00508	-102.32562950228765	194.37948150552813	514.13694	145.1064865876042	372.5268937776239	495.31543	127.33550811696148	361.85259662624014	500.25906	211.1677929509206	391.0473803225235	495.43456	171.27550536636954	236.64674595538327	512.40965	150.53777213984802	480.68012380832505	486.38117	183.3028141574913	-70.39187523771062	448.02341	-126.60677281296515	75.37129601698622	352.00989	-82.52660243619349	71.61578468017382	343.96905	-166.69122816228327	93.24680507925652	334.37961	-123.02869865366836	-34.12020445589441	425.6282	-126.09688145832138	167.37871698012486	282.50134	-121.3203440542676	
